<?xml version="1.0" encoding="utf-8"?>

<!-- License Agreement at http://iconmonstr.com/license/ -->

<!DOCTYPE svg PUBLIC "-//W3C//DTD SVG 1.1//EN" "http://www.w3.org/Graphics/SVG/1.1/DTD/svg11.dtd">
<svg version="1.1" xmlns="http://www.w3.org/2000/svg" xmlns:xlink="http://www.w3.org/1999/xlink" x="0px" y="0px"
	 width="512px" height="512px" viewBox="0 0 512 512" enable-background="new 0 0 512 512" xml:space="preserve">
<path id="quote-10-icon" d="M373.38,138.62c64.87,64.87,64.882,169.878,0,234.76c-64.873,64.873-169.878,64.882-234.76,0
	c-64.869-64.869-64.882-169.878,0-234.76C203.493,73.747,308.498,73.738,373.38,138.62z M256,49.999
	c-113.771,0-206,92.23-206,206.002c0,113.77,92.229,206,206,206s206-92.23,206-206C462,142.229,369.771,49.999,256,49.999z
	 M243.009,198.422c0,0,0,25.597,0,53.763c0,48.062-30.372,80.639-74.628,89.394l-8.387-18.126
	c20.494-7.725,33.495-26.213,33.495-44.841h-34.598v-80.189H243.009z M361.108,198.422c0,0,0,25.597,0,53.763
	c0,48.062-30.372,80.639-74.629,89.394l-8.386-18.126c20.493-7.725,33.494-26.213,33.494-44.841h-34.596v-80.189H361.108z"/>
</svg>
